# File produced by Open Asset Import Library (http://www.assimp.sf.net)
# (assimp v3.1.206520482)

mtllib grass_1.mtl

# 12 vertex positions
v 4.11648 1.22431 4.43523
v 4.01598 0.668693 4.52606
v 4.55826 0.668693 4.52606
v 4.46137 1.47937 4.36221
v 4.00454 1.64931 4.01898
v 3.99983 1.63784 4.2795
v 4.05756 1.7762 4.26506
v 4.06228 1.78767 4.02678
v 4.01598 0.668693 3.70718
v 4.11648 1.22431 3.85126
v 4.46137 1.47937 3.92446
v 4.55826 0.668693 3.70718

# 32 UV coordinates
vt 0.314159 0.835187 0
vt 0.314159 0.708615 0
vt 0.564159 0.708615 0
vt 0.564159 0.835187 0
vt 0.635989 0.483436 0
vt 0.635989 0.086612 0
vt 0.953903 0.086612 0
vt 0.953903 0.483436 0
vt 0.039871 0.473746 0
vt 0.039871 0.251736 0
vt 0.281506 0.251736 0
vt 0.281506 0.473746 0
vt 0.606418 0.48307 0
vt 0.306185 0.48307 0
vt 0.306185 0.070557 0
vt 0.606418 0.070557 0
vt 0.857703 0.817722 0
vt 0.857703 0.95107 0
vt 0.619533 0.95107 0
vt 0.619533 0.817722 0
vt 0.017381 0.774023 0
vt 0.017381 0.516574 0
vt 0.268284 0.516574 0
vt 0.268284 0.774023 0
vt 0.017381 0.968294 0
vt 0.268284 0.968294 0
vt 0.039871 0.034427 0
vt 0.281506 0.034427 0
vt 0.857703 0.712899 0
vt 0.619533 0.712899 0
vt 0.314159 0.958615 0
vt 0.564159 0.958615 0

# 19 vertex normals
vn 0.00713 0.205144 0.978706
vn 0.028232 0.183095 0.98269
vn 0.003734 0.208674 0.977978
vn -0.922874 0.385101 0.000262
vn 0.006257 0.255673 -0.966743
vn -0.013576 0.262628 -0.964802
vn -0.017472 0.263981 -0.96437
vn 0 -1 0
vn 0.958557 0.284869 0.004157
vn 0.992934 0.118666 0
vn 0.959695 0.281015 0.00406
vn -0.997905 0.064647 -0.002371
vn -0.984031 0.177995 -0
vn -0.998159 0.060596 -0.002455
vn -0.964788 -0.262877 -0.008952
vn -0.089978 0.288344 -0.95329
vn 0.60185 0.798413 0.017734
vn 0.60185 0.798412 0.017734
vn -0.072734 0.286767 0.955235

# Mesh 'g pCube2_pCube2' with 20 faces
g g pCube2_pCube2
usemtl initialShadingGroup
f 1/1/1 2/2/2 3/3/2
f 3/3/2 4/4/3 1/1/1
f 5/5/4 6/6/4 7/7/4
f 7/7/4 8/8/4 5/5/4
f 9/9/5 10/10/6 11/11/7
f 11/11/7 12/12/5 9/9/5
f 2/13/8 9/14/8 12/15/8
f 12/15/8 3/16/8 2/13/8
f 4/17/9 3/18/10 12/19/10
f 12/19/10 11/20/11 4/17/9
f 10/21/12 9/22/13 2/23/13
f 2/23/13 1/24/14 10/21/12
f 5/25/15 10/21/12 1/24/14
f 1/24/14 6/26/15 5/25/15
f 10/10/6 5/27/16 8/28/16
f 8/28/16 11/11/7 10/10/6
f 7/29/17 4/17/9 11/20/11
f 11/20/11 8/30/18 7/29/17
f 6/31/19 1/1/1 4/4/3
f 4/4/3 7/32/19 6/31/19

