# File produced by Open Asset Import Library (http://www.assimp.sf.net)
# (assimp v3.1.206520482)

mtllib Cloud.mtl

# 12 vertex positions
v -0.658056 3.91676 -3.80893
v -1.06207 7.03207 -1.71846
v 4.28223 5.67991 -1.63613
v -4.98537 4.56994 -1.85742
v -2.66632 1.72537 -1.74471
v 3.47968 2.39434 -1.64427
v 1.06207 7.03207 1.71846
v -2.68696 5.50678 1.89952
v -3.47325 2.98362 1.59382
v 0.744364 1.52346 1.61306
v 3.43692 4.52999 1.71846
v -2.98023e-08 4.52999 3.84259

# 15 UV coordinates
vt 0.795576 0.609621 0
vt 0.868475 0.877532 0
vt 0.661621 0.755418 0
vt 0.941374 0.609621 0
vt 0.868475 0.341709 0
vt 0.661621 0.463823 0
vt 0.454766 0.877532 0
vt 0.041057 0.877532 0
vt 0.113956 0.609621 0
vt 0.247911 0.755418 0
vt 0.041057 0.341709 0
vt 0.247911 0.463823 0
vt 0.454766 0.341709 0
vt 0.527665 0.609621 0
vt 0.381867 0.609621 0

# 24 vertex normals
vn 0.155253 0.564254 -0.810872
vn -0.28953 0.507168 -0.81176
vn -0.28953 0.507168 -0.811759
vn -0.28953 0.507167 -0.81176
vn -0.427282 -0.380834 -0.819997
vn 0.090109 -0.72539 -0.682414
vn 0.431043 -0.10307 -0.896425
vn 0.244649 0.95775 -0.151201
vn -0.530936 0.839507 0.115472
vn -0.530937 0.839507 0.115473
vn -0.530936 0.839507 0.115473
vn -0.775065 -0.629895 0.050062
vn 0.109377 -0.979357 -0.169991
vn 0.958648 -0.234565 0.161161
vn 0.669017 0.634998 0.386256
vn -0.358303 0.906963 0.221444
vn -0.856469 0.209753 0.471662
vn -0.316395 -0.910384 0.266637
vn 0.675194 -0.61876 0.401558
vn 0.470417 0.446496 0.76115
vn -0.245962 0.685857 0.684911
vn -0.565758 0.076836 0.820983
vn -0.216562 -0.615546 0.757763
vn 0.470106 -0.447678 0.760648

# Mesh 'g pPlatonic1_pPlatonic1' with 20 faces
g g pPlatonic1_pPlatonic1
usemtl initialShadingGroup
f 1/1/1 2/2/1 3/3/1
f 1/1/2 4/4/3 2/2/4
f 1/1/5 5/5/5 4/4/5
f 1/1/6 6/6/6 5/5/6
f 1/1/7 3/3/7 6/6/7
f 3/3/8 2/2/8 7/7/8
f 2/8/9 4/9/10 8/10/11
f 4/9/12 5/11/12 9/12/12
f 5/5/13 6/6/13 10/13/13
f 6/6/14 3/3/14 11/14/14
f 3/3/15 7/7/15 11/14/15
f 2/8/16 8/10/16 7/7/16
f 4/9/17 9/12/17 8/10/17
f 5/11/18 10/13/18 9/12/18
f 6/6/19 11/14/19 10/13/19
f 11/14/20 7/7/20 12/15/20
f 7/7/21 8/10/21 12/15/21
f 8/10/22 9/12/22 12/15/22
f 9/12/23 10/13/23 12/15/23
f 10/13/24 11/14/24 12/15/24

