# File produced by Open Asset Import Library (http://www.assimp.sf.net)
# (assimp v3.1.206520482)

mtllib paddle.mtl

# 24 vertex positions
v -4.67523 0.780078 13.1841
v -4.67523 0.121586 13.1841
v -2.73369 0.121586 13.6048
v -2.73369 0.780078 13.6048
v -1.26934 0.741209 2.60416
v -3.30247 0.741209 5.72952
v -0.266988 0.741209 6.38726
v -0.531401 0.741209 2.76729
v 2.85759 0.160455 -12.8301
v 2.85759 0.741209 -12.8301
v 3.59552 0.741209 -12.6669
v 3.59552 0.160455 -12.6669
v -3.30247 0.160455 5.72952
v -1.26934 0.160455 2.60416
v -0.531401 0.160455 2.76729
v -0.266988 0.160455 6.38726
v -4.76947 0.089664 9.93445
v -0.993964 0.089664 10.7525
v -0.993964 0.812 10.7525
v -4.76947 0.812 9.93445
v -5.36939 0.089664 11.9227
v -1.59388 0.089664 12.7408
v -1.59388 0.812 12.7408
v -5.36939 0.812 11.9227

# 52 UV coordinates
vt 0.296572 0.602173 0
vt 0.296572 0.711028 0
vt 0.253118 0.711028 0
vt 0.253118 0.602173 0
vt 0.408804 0.847696 0
vt 0.28775 0.847696 0
vt 0.28775 0.743801 0
vt 0.408804 0.743801 0
vt 0.04057 0.567025 0
vt 0.04057 0.031242 0
vt 0.489485 0.031242 0
vt 0.489485 0.567025 0
vt 0.29427 0.878784 0
vt 0.419361 0.878784 0
vt 0.419361 0.976122 0
vt 0.29427 0.976122 0
vt 0.213663 0.602173 0
vt 0.213663 0.711028 0
vt 0.191151 0.711028 0
vt 0.191151 0.602173 0
vt 0.559199 0.602173 0
vt 0.559199 0.711028 0
vt 0.466614 0.711028 0
vt 0.466614 0.602173 0
vt 0.143274 0.878784 0
vt 0.143274 0.976122 0
vt 0.226127 0.711028 0
vt 0.226127 0.602173 0
vt 0.134171 0.743801 0
vt 0.134171 0.847696 0
vt 0.368105 0.602173 0
vt 0.368105 0.711028 0
vt 0.072657 0.878784 0
vt 0.072657 0.976122 0
vt 0.234208 0.711028 0
vt 0.234208 0.602173 0
vt 0.061961 0.743801 0
vt 0.061961 0.847696 0
vt 0.326601 0.602173 0
vt 0.326601 0.711028 0
vt 0.023834 0.878784 0
vt 0.023834 0.976122 0
vt 0.024017 0.743801 0
vt 0.024017 0.847696 0
vt 0.963449 0.847696 0
vt 0.963449 0.743801 0
vt 0.042904 0.602173 0
vt 0.042904 0.711028 0
vt 0.962596 0.976122 0
vt 0.962596 0.878784 0
vt 0.955644 0.711028 0
vt 0.955644 0.602173 0

# 30 vertex normals
vn -0.211771 0 0.977319
vn 0 1 -0
vn 0.002586 0.999925 -0.011934
vn 0.002519 0.999929 -0.011624
vn 0.215853 0 -0.976426
vn 0.002586 -0.999925 -0.011934
vn 0 -1 0
vn 0.002519 -0.999929 -0.011624
vn 0.997853 0 0.065489
vn 0.980066 0 0.198671
vn -0.949089 0 -0.315009
vn -0.905734 0 -0.423846
vn 0.002131 -0.999949 -0.009834
vn 0.002248 -0.999944 -0.010375
vn 0.978183 0 0.207744
vn 0.002248 0.999944 -0.010375
vn 0.002131 0.999949 -0.009834
vn -0.948923 0 -0.315508
vn -0.001155 -0.999985 0.005328
vn -0.00107 -0.999987 0.004938
vn 0.859144 0 0.511734
vn -0.00107 0.999987 0.004938
vn -0.001155 0.999985 0.005328
vn -0.99988 0 0.015478
vn -0.006223 -0.999568 0.028721
vn 0.604086 0 0.796919
vn -0.006223 0.999568 0.028721
vn -0.876102 0 0.482126
vn 0.966061 0 0.258313
vn -0.966061 0 -0.258313

# Mesh 'g pCube2_pCube2' with 44 faces
g g pCube2_pCube2
usemtl initialShadingGroup
f 1/1/1 2/2/1 3/3/1
f 3/3/1 4/4/1 1/1/1
f 5/5/2 6/6/3 7/7/4
f 7/7/4 8/8/2 5/5/2
f 9/9/5 10/10/5 11/11/5
f 11/11/5 12/12/5 9/9/5
f 13/13/6 14/14/7 15/15/7
f 15/15/7 16/16/8 13/13/6
f 7/17/9 16/18/9 15/19/10
f 15/19/10 8/20/10 7/17/9
f 5/21/11 14/22/11 13/23/12
f 13/23/12 6/24/12 5/21/11
f 17/25/13 13/13/6 16/16/8
f 16/16/8 18/26/14 17/25/13
f 18/27/15 16/18/9 7/17/9
f 7/17/9 19/28/15 18/27/15
f 19/29/16 7/7/4 6/6/3
f 6/6/3 20/30/17 19/29/16
f 20/31/18 6/24/12 13/23/12
f 13/23/12 17/32/18 20/31/18
f 21/33/19 17/25/13 18/26/14
f 18/26/14 22/34/20 21/33/19
f 22/35/21 18/27/15 19/28/15
f 19/28/15 23/36/21 22/35/21
f 23/37/22 19/29/16 20/30/17
f 20/30/17 24/38/23 23/37/22
f 24/39/24 20/31/18 17/32/18
f 17/32/18 21/40/24 24/39/24
f 2/41/25 21/33/19 22/34/20
f 22/34/20 3/42/25 2/41/25
f 3/3/26 22/35/21 23/36/21
f 23/36/21 4/4/26 3/3/26
f 4/43/27 23/37/22 24/38/23
f 24/38/23 1/44/27 4/43/27
f 1/1/28 24/39/24 21/40/24
f 21/40/24 2/2/28 1/1/28
f 10/45/2 5/5/2 8/8/2
f 8/8/2 11/46/2 10/45/2
f 11/47/29 8/20/10 15/19/10
f 15/19/10 12/48/29 11/47/29
f 12/49/7 15/15/7 14/14/7
f 14/14/7 9/50/7 12/49/7
f 9/51/30 14/22/11 5/21/11
f 5/21/11 10/52/30 9/51/30

