# File produced by Open Asset Import Library (http://www.assimp.sf.net)
# (assimp v3.1.206520482)

mtllib Stone.mtl

# 40 vertex positions
v -2.00743 0.83894 3.45061
v -2.33108 0 3.75102
v -0.66611 0 4.32279
v -0.527374 0.83894 3.95888
v 1.24143 0 4.01092
v 1.16831 0.83894 3.68164
v 2.66383 0 3.43914
v 2.43273 0.83894 3.17337
v 3.77436 0 3.19657
v 3.41991 0.83894 2.95774
v -3.11638 0.83894 1.97604
v -0.627744 1.02467 1.62757
v 1.13376 1.05128 1.62169
v 2.82843 1.13054 1.6101
v 4.14381 0.83894 2.00684
v -2.85454 0.83894 0.33205
v -0.462451 1.10972 -0.407172
v 1.12048 1.05129 -0.400835
v 2.79159 1.12467 -0.411463
v 4.28243 0.83894 0.54768
v -2.30007 0.83894 -1.20413
v -0.881624 0.83894 -1.86642
v 1.04509 0.83894 -1.54297
v 2.61475 0.832632 -1.59356
v 4.04282 0.850001 -0.978397
v -2.66029 0 -1.48529
v -1.06462 0 -2.23033
v 1.10282 0 -1.86648
v 2.88434 -0.00630802 -1.91513
v 4.47232 0.011062 -1.24417
v -3.28404 0 0.242818
v -0.388886 0 -0.432917
v 1.12015 0 -0.432917
v 2.62918 0 -0.432917
v 4.74464 0 0.485389
v -3.57859 0 2.09221
v -0.388886 0 1.58974
v 1.12015 0 1.58974
v 2.62918 0 1.58974
v 4.5887 0 2.12687

# 70 UV coordinates
vt 0.490473 0.145464 0
vt 0.490473 0.068572 0
vt 0.535573 0.068572 0
vt 0.535573 0.145464 0
vt 0.590743 0.068572 0
vt 0.590743 0.145464 0
vt 0.638228 0.068572 0
vt 0.638228 0.145464 0
vt 0.672336 0.068572 0
vt 0.672336 0.145464 0
vt 0.51314 0.624832 0
vt 0.51314 0.492651 0
vt 0.668814 0.492651 0
vt 0.668814 0.624832 0
vt 0.790074 0.492651 0
vt 0.790074 0.624832 0
vt 0.888598 0.492651 0
vt 0.888598 0.624832 0
vt 0.976199 0.492651 0
vt 0.976199 0.624832 0
vt 0.51314 0.803413 0
vt 0.668814 0.803413 0
vt 0.790074 0.803413 0
vt 0.888598 0.803413 0
vt 0.976199 0.803413 0
vt 0.51314 0.968052 0
vt 0.668814 0.968052 0
vt 0.790074 0.968052 0
vt 0.888599 0.968052 0
vt 0.976199 0.968052 0
vt 0.320993 0.068572 0
vt 0.320993 0.145464 0
vt 0.247469 0.145464 0
vt 0.247469 0.068572 0
vt 0.143888 0.145464 0
vt 0.143888 0.068572 0
vt 0.057716 0.145464 0
vt 0.057716 0.068572 0
vt 0.947058 0.068572 0
vt 0.947057 0.145464 0
vt 0.859863 0.145464 0
vt 0.859863 0.068572 0
vt 0.169543 0.967 0
vt 0.024303 0.967 0
vt 0.024303 0.788696 0
vt 0.169543 0.788696 0
vt 0.024303 0.630794 0
vt 0.169543 0.630794 0
vt 0.024303 0.499478 0
vt 0.169543 0.499478 0
vt 0.024303 0.365396 0
vt 0.169543 0.365396 0
vt 0.321632 0.967 0
vt 0.321632 0.788696 0
vt 0.321632 0.630794 0
vt 0.321632 0.499478 0
vt 0.321632 0.365396 0
vt 0.479816 0.967 0
vt 0.479816 0.788696 0
vt 0.479816 0.630794 0
vt 0.479816 0.499478 0
vt 0.479816 0.365396 0
vt 0.782171 0.145464 0
vt 0.782171 0.068572 0
vt 0.717106 0.145464 0
vt 0.717106 0.068572 0
vt 0.382613 0.068572 0
vt 0.382613 0.145464 0
vt 0.43858 0.068572 0
vt 0.43858 0.145464 0

# 57 vertex normals
vn -0.294628 0.420878 0.857937
vn -0.294628 0.420877 0.857937
vn -0.083932 0.408196 0.909028
vn -0.050834 0.4045 0.913124
vn 0.236731 0.372782 0.897214
vn 0.239212 0.372745 0.89657
vn 0.278426 0.358922 0.890873
vn 0.292709 0.361119 0.88539
vn 0.20025 0.34559 0.91677
vn -0.073277 0.996729 0.034088
vn -0.049233 0.996716 0.064284
vn -0.022158 0.996652 0.078699
vn -0.038612 0.998245 0.0449
vn -0.000962 0.994382 0.105847
vn -0.009756 0.998218 0.058868
vn 0.023413 0.989369 0.143531
vn 0.060549 0.996635 0.055241
vn 0.111302 0.980285 0.16326
vn 0.169398 0.983723 0.059937
vn -0.093795 0.995521 -0.01187
vn -0.038347 0.997848 -0.053194
vn -0.008734 0.99752 -0.069846
vn 0.057164 0.995596 -0.074305
vn 0.190136 0.981404 -0.026342
vn -0.10501 0.989996 -0.094236
vn -0.050686 0.989991 -0.131714
vn 0.009637 0.980245 -0.197551
vn 0.043372 0.982814 -0.179432
vn 0.15795 0.979388 -0.125903
vn -0.380613 0.436623 -0.815165
vn -0.069632 0.40973 -0.909546
vn -0.11813 0.416739 -0.901318
vn 0.076459 0.361649 -0.929174
vn 0.071779 0.361395 -0.929646
vn 0.141854 0.398042 -0.906333
vn 0.193854 0.40927 -0.891582
vn 0.348796 0.435774 -0.829724
vn 0.348797 0.435774 -0.829724
vn 0 -1 0
vn -0.000807 -0.999999 0.000859
vn -0.0004 -1 0.000425
vn 0.002068 -0.999998 8.3e-05
vn 0.001109 -0.999999 1.5e-05
vn 0.005337 -0.999985 -0.001509
vn 0.001572 -0.999999 -0.000444
vn 0.874961 0.483539 -0.025173
vn 0.874605 0.483801 -0.031656
vn 0.864267 0.485242 -0.132602
vn 0.823451 0.479969 0.302587
vn 0.828602 0.48051 0.287279
vn 0.709211 0.453339 0.539911
vn -0.835319 0.459714 -0.301505
vn -0.858826 0.462995 -0.219214
vn -0.858268 0.46295 -0.221478
vn -0.839035 0.493875 0.228273
vn -0.839194 0.49388 0.227676
vn -0.708041 0.46383 0.532485

# Mesh 'g pCube1_pCube1' with 76 faces
g g pCube1_pCube1
usemtl initialShadingGroup
f 1/1/1 2/2/2 3/3/3
f 3/3/3 4/4/4 1/1/1
f 4/4/4 3/3/3 5/5/5
f 5/5/5 6/6/6 4/4/4
f 6/6/6 5/5/5 7/7/7
f 7/7/7 8/8/8 6/6/6
f 8/8/8 7/7/7 9/9/9
f 9/9/9 10/10/9 8/8/8
f 11/11/10 1/12/11 4/13/12
f 4/13/12 12/14/13 11/11/10
f 12/14/13 4/13/12 6/15/14
f 6/15/14 13/16/15 12/14/13
f 13/16/15 6/15/14 8/17/16
f 8/17/16 14/18/17 13/16/15
f 14/18/17 8/17/16 10/19/18
f 10/19/18 15/20/19 14/18/17
f 16/21/20 11/11/10 12/14/13
f 12/14/13 17/22/21 16/21/20
f 17/22/21 12/14/13 13/16/15
f 13/16/15 18/23/22 17/22/21
f 18/23/22 13/16/15 14/18/17
f 14/18/17 19/24/23 18/23/22
f 19/24/23 14/18/17 15/20/19
f 15/20/19 20/25/24 19/24/23
f 21/26/25 16/21/20 17/22/21
f 17/22/21 22/27/26 21/26/25
f 22/27/26 17/22/21 18/23/22
f 18/23/22 23/28/27 22/27/26
f 23/28/27 18/23/22 19/24/23
f 19/24/23 24/29/28 23/28/27
f 24/29/28 19/24/23 20/25/24
f 20/25/24 25/30/29 24/29/28
f 26/31/30 21/32/30 22/33/31
f 22/33/31 27/34/32 26/31/30
f 27/34/32 22/33/31 23/35/33
f 23/35/33 28/36/34 27/34/32
f 28/36/34 23/35/33 24/37/35
f 24/37/35 29/38/36 28/36/34
f 29/39/36 24/40/35 25/41/37
f 25/41/37 30/42/38 29/39/36
f 31/43/39 26/44/39 27/45/39
f 27/45/39 32/46/39 31/43/39
f 32/46/39 27/45/39 28/47/40
f 28/47/40 33/48/41 32/46/39
f 33/48/41 28/47/40 29/49/42
f 29/49/42 34/50/43 33/48/41
f 34/50/43 29/49/42 30/51/44
f 30/51/44 35/52/45 34/50/43
f 36/53/39 31/43/39 32/46/39
f 32/46/39 37/54/39 36/53/39
f 37/54/39 32/46/39 33/48/41
f 33/48/41 38/55/39 37/54/39
f 38/55/39 33/48/41 34/50/43
f 34/50/43 39/56/39 38/55/39
f 39/56/39 34/50/43 35/52/45
f 35/52/45 40/57/39 39/56/39
f 2/58/39 36/53/39 37/54/39
f 37/54/39 3/59/39 2/58/39
f 3/59/39 37/54/39 38/55/39
f 38/55/39 5/60/39 3/59/39
f 5/60/39 38/55/39 39/56/39
f 39/56/39 7/61/39 5/60/39
f 7/61/39 39/56/39 40/57/39
f 40/57/39 9/62/39 7/61/39
f 20/63/46 35/64/47 30/42/48
f 30/42/48 25/41/48 20/63/46
f 15/65/49 40/66/50 35/64/47
f 35/64/47 20/63/46 15/65/49
f 10/10/51 9/9/51 40/66/50
f 40/66/50 15/65/49 10/10/51
f 21/32/52 26/31/52 31/67/53
f 31/67/53 16/68/54 21/32/52
f 16/68/54 31/67/53 36/69/55
f 36/69/55 11/70/56 16/68/54
f 11/70/56 36/69/55 2/2/57
f 2/2/57 1/1/57 11/70/56

