# File produced by Open Asset Import Library (http://www.assimp.sf.net)
# (assimp v3.1.206520482)

mtllib tree2.mtl

# 68 vertex positions
v -4.17913 9.6883 -1.54433
v -2.21329 9.70234 -1.53984
v -1.23466 9.86394 0.204741
v -2.22187 10.0115 1.94483
v -4.18771 9.99745 1.94035
v -5.16634 9.83585 0.195767
v -2.99022 12.4624 0.380176
v -4.42125 8.75073 -1.68217
v -2.04484 8.75365 -1.69475
v -0.846229 9.05787 0.334607
v -2.02403 9.35917 2.37654
v -4.40045 9.35625 2.38912
v -5.59905 9.05203 0.359763
v -2.95464 10.7187 -0.022832
v -4.64293 7.8363 -2.22178
v -1.82639 7.84209 -2.23594
v -0.405789 7.8159 0.195997
v -1.80173 7.78392 2.64211
v -4.61827 7.77813 2.65628
v -6.03887 7.80433 0.224333
v -2.90469 9.82661 0.090508
v -5.14749 4.38853 -2.91701
v -1.26084 4.30432 -2.83977
v 0.628162 4.80293 0.522091
v -1.36948 5.38574 3.80673
v -5.25613 5.46995 3.72949
v -7.14513 4.97134 0.367628
v -2.74217 7.59001 -0.185231
v -4.96521 6.39488 -2.77701
v -1.50879 6.40198 -2.79439
v 0.234542 6.36984 0.190047
v -1.47854 6.3306 3.19188
v -4.93495 6.3235 3.20926
v -6.67829 6.35564 0.224822
v -2.83207 8.83736 0.060594
v -5.39387 3.09737 -3.27877
v -1.0548 3.09737 -3.27877
v 1.11474 3.09737 0.478975
v -1.0548 3.09737 4.23672
v -5.39387 3.09737 4.23672
v -7.56341 3.09737 0.478974
v -2.7277 6.20048 0.260085
v -2.50397 2.73102 0.254417
v -2.38348 4.76837e-07 0.03491
v -3.27557 4.76837e-07 0.03491
v -3.07136 2.73102 0.254417
v -3.72161 4.76837e-07 0.807481
v -3.35506 2.73102 0.745791
v -3.27557 4.76837e-07 1.58005
v -3.07136 2.73102 1.23717
v -2.38348 4.76837e-07 1.58005
v -2.50397 2.73102 1.23717
v -1.93744 4.76837e-07 0.807481
v -2.22027 2.73102 0.745791
v -2.82952 4.76837e-07 0.807481
v -3.18297 11.3946 0.045901
v -3.41902 11.3946 0.045901
v -3.301 11.3946 0.250326
v -3.53705 11.3946 0.250326
v -3.41902 11.3946 0.45475
v -3.18297 11.3946 0.45475
v -3.06495 11.3946 0.250326
v -2.51471 7.05444 0.519844
v -2.19989 7.05444 -0.025435
v -3.14434 7.05444 0.519844
v -3.45916 7.05444 -0.025436
v -3.14434 7.05444 -0.570715
v -2.51471 7.05444 -0.570715

# 56 UV coordinates
vt 0.375 0.033494 0
vt 0.625 0.033494 0
vt 0.75 0.25 0
vt 0.625 0.466506 0
vt 0.375 0.466506 0
vt 0.25 0.25 0
vt 0.25 0.5 0
vt 0.333333 0.5 0
vt 0.5 1 0
vt 0.416667 0.5 0
vt 0.5 0.5 0
vt 0.583333 0.5 0
vt 0.666667 0.5 0
vt 0.75 0.5 0
vt 0.053497 0.455676 0
vt 0.053497 0.3125 0
vt 0.202331 0.3125 0
vt 0.202331 0.455676 0
vt 0.351166 0.3125 0
vt 0.351166 0.455676 0
vt 0.5 0.3125 0
vt 0.5 0.455676 0
vt 0.648834 0.3125 0
vt 0.648834 0.455676 0
vt 0.797669 0.3125 0
vt 0.797669 0.455676 0
vt 0.946503 0.3125 0
vt 0.946503 0.455676 0
vt 0.421875 0.020934 0
vt 0.578125 0.020934 0
vt 0.5 0.15 0
vt 0.34375 0.15625 0
vt 0.421875 0.291566 0
vt 0.578125 0.291566 0
vt 0.65625 0.15625 0
vt 0.578125 0.979066 0
vt 0.421875 0.979066 0
vt 0.5 0.8375 0
vt 0.34375 0.84375 0
vt 0.421875 0.708434 0
vt 0.578125 0.708434 0
vt 0.65625 0.84375 0
vt 0.648834 0.581366 0
vt 0.797669 0.581366 0
vt 0.5 0.581366 0
vt 0.351166 0.581366 0
vt 0.202331 0.581366 0
vt 0.053497 0.581366 0
vt 0.946503 0.581366 0
vt 0.648834 0.68844 0
vt 0.797669 0.68844 0
vt 0.5 0.68844 0
vt 0.351166 0.68844 0
vt 0.202331 0.68844 0
vt 0.053497 0.68844 0
vt 0.946503 0.68844 0

# 84 vertex normals
vn 0.006915 -0.996062 0.088385
vn -0.002203 0.570641 -0.821197
vn -0.678144 0.592389 -0.434966
vn -0.731577 0.581087 0.356557
vn -0.005761 0.536804 0.843687
vn 0.772896 0.495413 0.39648
vn 0.772896 0.495413 0.396481
vn 0.723726 0.519621 -0.454109
vn 0.001994 -0.98912 0.1471
vn -0.004831 0.646711 -0.762719
vn -0.004831 0.646711 -0.76272
vn -0.527504 0.741989 -0.413753
vn -0.507126 0.84434 0.172952
vn 0.001538 0.870297 0.492525
vn 0.58055 0.784176 0.219156
vn 0.597925 0.661713 -0.452352
vn 0.597925 0.661713 -0.452351
vn 0.001994 -0.999927 -0.011934
vn -0.004831 0.759687 -0.650271
vn -0.527504 0.798306 -0.290599
vn -0.507126 0.806132 0.304916
vn 0.001538 0.780981 0.624553
vn 0.58055 0.739391 0.340973
vn 0.597925 0.725182 -0.341462
vn -0.024562 -0.986786 0.160154
vn 0.029103 0.63608 -0.771074
vn -0.499737 0.748056 -0.436663
vn -0.499737 0.748056 -0.436662
vn -0.491587 0.857992 0.148967
vn 0.00944 0.876741 0.48087
vn 0.59292 0.773675 0.223323
vn 0.624143 0.641604 -0.445859
vn 0 -1 -0
vn 0 0.751881 -0.659299
vn -0.524395 0.795831 -0.30276
vn -0.506997 0.810723 0.292715
vn -0 0.788374 0.615196
vn 0.580344 0.742249 0.335062
vn 0.580345 0.742249 0.335062
vn 0.601123 0.719862 -0.347058
vn 0 -0.07072 -0.997496
vn 0 0.080117 -0.996785
vn 0 -0.07028 -0.997527
vn -0.865845 -0.020377 -0.499897
vn -0.861295 0.104371 -0.49727
vn -0.865993 -0.008672 -0.499982
vn -0.862298 0.092677 0.497848
vn -0.859067 0.126508 0.495983
vn -0.862044 0.095774 0.497702
vn 0 0.146406 0.989225
vn 0 0.124575 0.99221
vn 0 0.146469 0.989215
vn 0.862336 0.092201 0.49787
vn 0.861643 0.100473 0.49747
vn 0.862405 0.091345 0.49791
vn 0.865959 -0.012425 -0.499961
vn 0.863376 0.078156 -0.498471
vn 0.865825 -0.021508 -0.499884
vn -4e-06 1 7e-06
vn 4e-06 1 7e-06
vn 0 1 -0
vn 8e-06 1 0
vn 4e-06 1 -7e-06
vn -4e-06 1 -7e-06
vn -8e-06 1 0
vn 0.861026 0.1073 0.497113
vn 0.860965 0.107946 0.497079
vn 0 0.100081 0.994979
vn 0 0.105627 0.994406
vn -0.865894 0.017394 0.499924
vn -0.865795 0.023043 0.499867
vn -0.864627 -0.056814 -0.499193
vn -0.864555 -0.058239 -0.499152
vn 0 -0.05898 -0.998259
vn 0 -0.046719 -0.998908
vn 0.86579 0.023335 -0.499864
vn 0.865405 0.037836 -0.499642
vn 0.857562 0.139467 0.495114
vn 0.857561 0.139467 0.495114
vn 0 0.014996 0.999888
vn -0.865058 -0.047257 0.499442
vn -0.865911 0.016225 -0.499934
vn 0 0.14066 -0.990058
vn 0.848486 0.200241 -0.489873

# Mesh 'g pasted__pasted__pasted__pasted__pasted__pCone1 pasted__pasted__pasted__pasted__group pasted__pasted__pasted__group1 pasted__pasted__group2 pasted__group3 group4_pasted__pasted__pasted__pasted__pasted__pCone1 pasted__pasted__pasted__pasted__group pasted__pasted__pasted__group1 pasted__pasted__group2 pasted__group3 group4' with 10 faces
g g pasted__pasted__pasted__pasted__pasted__pCone1 pasted__pasted__pasted__pasted__group pasted__pasted__pasted__group1 pasted__pasted__group2 pasted__group3 group4_pasted__pasted__pasted__pasted__pasted__pCone1 pasted__pasted__pasted__pasted__group pasted__pasted__pasted__group1 pasted__pasted__group2 pasted__group3 group4
usemtl lambert2SG
f 1/1/1 2/2/1 3/3/1
f 1/1/1 3/3/1 4/4/1
f 1/1/1 4/4/1 5/5/1
f 5/5/1 6/6/1 1/1/1
f 2/7/2 1/8/2 7/9/2
f 1/8/3 6/10/3 7/9/3
f 6/10/4 5/11/4 7/9/4
f 5/11/5 4/12/5 7/9/5
f 4/12/6 3/13/7 7/9/6
f 3/13/8 2/14/8 7/9/8

# Mesh 'g pasted__pasted__pasted__pasted__pCone1 pasted__pasted__pasted__group pasted__pasted__group1 pasted__group2 group3_pasted__pasted__pasted__pasted__pCone1 pasted__pasted__pasted__group pasted__pasted__group1 pasted__group2 group3' with 10 faces
g g pasted__pasted__pasted__pasted__pCone1 pasted__pasted__pasted__group pasted__pasted__group1 pasted__group2 group3_pasted__pasted__pasted__pasted__pCone1 pasted__pasted__pasted__group pasted__pasted__group1 pasted__group2 group3
usemtl lambert2SG
f 8/1/9 9/2/9 10/3/9
f 8/1/9 10/3/9 11/4/9
f 8/1/9 11/4/9 12/5/9
f 12/5/9 13/6/9 8/1/9
f 9/7/10 8/8/11 14/9/10
f 8/8/12 13/10/12 14/9/12
f 13/10/13 12/11/13 14/9/13
f 12/11/14 11/12/14 14/9/14
f 11/12/15 10/13/15 14/9/15
f 10/13/16 9/14/17 14/9/16

# Mesh 'g pasted__pasted__pasted__pCone1 pasted__pasted__group pasted__group1 group2_pasted__pasted__pasted__pCone1 pasted__pasted__group pasted__group1 group2' with 10 faces
g g pasted__pasted__pasted__pCone1 pasted__pasted__group pasted__group1 group2_pasted__pasted__pasted__pCone1 pasted__pasted__group pasted__group1 group2
usemtl lambert2SG
f 15/1/18 16/2/18 17/3/18
f 15/1/18 17/3/18 18/4/18
f 15/1/18 18/4/18 19/5/18
f 19/5/18 20/6/18 15/1/18
f 16/7/19 15/8/19 21/9/19
f 15/8/20 20/10/20 21/9/20
f 20/10/21 19/11/21 21/9/21
f 19/11/22 18/12/22 21/9/22
f 18/12/23 17/13/23 21/9/23
f 17/13/24 16/14/24 21/9/24

# Mesh 'g pasted__pCone1 group_pasted__pCone1 group' with 10 faces
g g pasted__pCone1 group_pasted__pCone1 group
usemtl lambert2SG
f 22/1/25 23/2/25 24/3/25
f 22/1/25 24/3/25 25/4/25
f 22/1/25 25/4/25 26/5/25
f 26/5/25 27/6/25 22/1/25
f 23/7/26 22/8/26 28/9/26
f 22/8/27 27/10/27 28/9/28
f 27/10/29 26/11/29 28/9/29
f 26/11/30 25/12/30 28/9/30
f 25/12/31 24/13/31 28/9/31
f 24/13/32 23/14/32 28/9/32

# Mesh 'g pasted__pasted__pCone1 pasted__group group1_pasted__pasted__pCone1 pasted__group group1' with 10 faces
g g pasted__pasted__pCone1 pasted__group group1_pasted__pasted__pCone1 pasted__group group1
usemtl lambert2SG
f 29/1/18 30/2/18 31/3/18
f 29/1/18 31/3/18 32/4/18
f 29/1/18 32/4/18 33/5/18
f 33/5/18 34/6/18 29/1/18
f 30/7/19 29/8/19 35/9/19
f 29/8/20 34/10/20 35/9/20
f 34/10/21 33/11/21 35/9/21
f 33/11/22 32/12/22 35/9/22
f 32/12/23 31/13/23 35/9/23
f 31/13/24 30/14/24 35/9/24

# Mesh 'g pCone1_pCone1' with 10 faces
g g pCone1_pCone1
usemtl lambert2SG
f 36/1/33 37/2/33 38/3/33
f 36/1/33 38/3/33 39/4/33
f 36/1/33 39/4/33 40/5/33
f 40/5/33 41/6/33 36/1/33
f 37/7/34 36/8/34 42/9/34
f 36/8/35 41/10/35 42/9/35
f 41/10/36 40/11/36 42/9/36
f 40/11/37 39/12/37 42/9/37
f 39/12/38 38/13/38 42/9/39
f 38/13/40 37/14/40 42/9/40

# Mesh 'g pCylinder1_pCylinder1' with 48 faces
g g pCylinder1_pCylinder1
usemtl initialShadingGroup
f 43/15/41 44/16/42 45/17/42
f 45/17/42 46/18/43 43/15/41
f 46/18/44 45/17/45 47/19/45
f 47/19/45 48/20/46 46/18/44
f 48/20/47 47/19/48 49/21/48
f 49/21/48 50/22/49 48/20/47
f 50/22/50 49/21/51 51/23/51
f 51/23/51 52/24/52 50/22/50
f 52/24/53 51/23/54 53/25/54
f 53/25/54 54/26/55 52/24/53
f 54/26/56 53/25/57 44/27/57
f 44/27/57 43/28/58 54/26/56
f 45/29/33 44/30/33 55/31/33
f 47/32/33 45/29/33 55/31/33
f 49/33/33 47/32/33 55/31/33
f 51/34/33 49/33/33 55/31/33
f 53/35/33 51/34/33 55/31/33
f 44/30/33 53/35/33 55/31/33
f 56/36/59 57/37/60 58/38/61
f 57/37/60 59/39/62 58/38/61
f 59/39/62 60/40/63 58/38/61
f 60/40/63 61/41/64 58/38/61
f 61/41/64 62/42/65 58/38/61
f 62/42/65 56/36/59 58/38/61
f 63/43/66 52/24/53 54/26/55
f 54/26/55 64/44/67 63/43/66
f 65/45/68 50/22/50 52/24/52
f 52/24/52 63/43/69 65/45/68
f 66/46/70 48/20/47 50/22/49
f 50/22/49 65/45/71 66/46/70
f 67/47/72 46/18/44 48/20/46
f 48/20/46 66/46/73 67/47/72
f 68/48/74 43/15/41 46/18/43
f 46/18/43 67/47/75 68/48/74
f 64/44/76 54/26/56 43/28/58
f 43/28/58 68/49/77 64/44/76
f 61/50/78 63/43/66 64/44/67
f 64/44/67 62/51/79 61/50/78
f 60/52/80 65/45/68 63/43/69
f 63/43/69 61/50/80 60/52/80
f 59/53/81 66/46/70 65/45/71
f 65/45/71 60/52/81 59/53/81
f 57/54/82 67/47/72 66/46/73
f 66/46/73 59/53/82 57/54/82
f 56/55/83 68/48/74 67/47/75
f 67/47/75 57/54/83 56/55/83
f 62/51/84 64/44/76 68/49/77
f 68/49/77 56/56/84 62/51/84

