<?xml version="1.0" encoding="UTF-8" standalone="no"?>
<svg
   xmlns:dc="http://purl.org/dc/elements/1.1/"
   xmlns:cc="http://creativecommons.org/ns#"
   xmlns:rdf="http://www.w3.org/1999/02/22-rdf-syntax-ns#"
   xmlns:svg="http://www.w3.org/2000/svg"
   xmlns="http://www.w3.org/2000/svg"
   xmlns:sodipodi="http://sodipodi.sourceforge.net/DTD/sodipodi-0.dtd"
   xmlns:inkscape="http://www.inkscape.org/namespaces/inkscape"
   width="3840"
   height="2160"
   viewBox="0 0 1016 571.50002"
   version="1.1"
   id="svg8"
   inkscape:version="1.0.1 (3bc2e813f5, 2020-09-07)"
   sodipodi:docname="UI_Art.svg"
   inkscape:export-filename="D:\Documents\Unity Projects\Find the Medallion\Assets\Art\UI\UI_Art_Export.png"
   inkscape:export-xdpi="96"
   inkscape:export-ydpi="96">
  <defs
     id="defs2" />
  <sodipodi:namedview
     id="base"
     pagecolor="#ffffff"
     bordercolor="#666666"
     borderopacity="1.0"
     inkscape:pageopacity="0.0"
     inkscape:pageshadow="2"
     inkscape:zoom="0.59252929"
     inkscape:cx="1460.1071"
     inkscape:cy="1080"
     inkscape:document-units="px"
     inkscape:current-layer="layer1"
     inkscape:document-rotation="0"
     showgrid="false"
     units="px"
     inkscape:window-width="3840"
     inkscape:window-height="2050"
     inkscape:window-x="2676"
     inkscape:window-y="-12"
     inkscape:window-maximized="1" />
  <metadata
     id="metadata5">
    <rdf:RDF>
      <cc:Work
         rdf:about="">
        <dc:format>image/svg+xml</dc:format>
        <dc:type
           rdf:resource="http://purl.org/dc/dcmitype/StillImage" />
        <dc:title></dc:title>
      </cc:Work>
    </rdf:RDF>
  </metadata>
  <g
     inkscape:label="Button"
     inkscape:groupmode="layer"
     id="layer1"
     sodipodi:insensitive="true">
    <rect
       style="fill:#00b7ff;fill-opacity:1;fill-rule:evenodd;stroke:#000000;stroke-width:1.32292;stroke-miterlimit:4;stroke-dasharray:none;stroke-opacity:1"
       id="rect10"
       width="390.71558"
       height="134.85269"
       x="36.615631"
       y="14.289026"
       ry="25.452328" />
  </g>
  <g
     inkscape:groupmode="layer"
     id="layer2"
     inkscape:label="Potion"
     sodipodi:insensitive="true">
    <path
       id="rect891"
       style="fill:#ef742a;fill-opacity:1;stroke:#000000;stroke-width:4.4;stroke-miterlimit:4;stroke-dasharray:none;stroke-opacity:1"
       d="m 2331.5312,464.11133 c -27.5817,0 -49.7871,22.20533 -49.7871,49.78711 v 5.90625 h -9.2832 c -27.5817,0 -49.7871,22.20532 -49.7871,49.78711 v 75.94531 c 0,27.58178 22.2054,49.78711 49.7871,49.78711 h 14.4844 c -1.1892,4.57869 -1.8262,9.3847 -1.8262,14.3457 v 137.54492 h -9.2812 c -31.3217,0 -56.5391,25.21545 -56.5391,56.53711 v 226.99415 h -48.0976 c -31.3217,0 -56.5371,25.2154 -56.5371,56.5371 0,4.2738 0.4846,8.4279 1.375,12.4258 -25.9695,5.8672 -45.2559,28.976 -45.2559,56.7695 v 24.0039 c -20.8696,8.8343 -35.4414,29.467 -35.4414,53.6289 v 398.293 c 0,32.2567 25.9699,58.2246 58.2266,58.2246 h 33.205 c 2.9427,29.4615 27.6659,52.3184 57.9278,52.3184 h 359.4765 c 30.2618,0 54.9871,-22.8569 57.9297,-52.3184 h 16.3281 c 32.2567,0 58.2247,-25.9679 58.2247,-58.2246 v -398.293 c 0,-24.8062 -15.3637,-45.879 -37.129,-54.2968 v -23.336 c 0,-32.2567 -25.9679,-58.2246 -58.2246,-58.2246 h -0.2207 c 0.6926,-3.5482 1.0645,-7.2138 1.0645,-10.9707 0,-31.3217 -25.2155,-56.5371 -56.5371,-56.5371 h -31.2227 V 903.75195 c 0,-31.32166 -25.2154,-56.53711 -56.5371,-56.53711 h -7.5937 V 709.66992 c 0,-4.961 -0.637,-9.76701 -1.8262,-14.3457 h 11.1074 c 27.5818,0 49.7871,-22.20533 49.7871,-49.78711 V 569.5918 c 0,-27.58179 -22.2053,-49.78711 -49.7871,-49.78711 h -5.9062 v -5.90625 c 0,-27.58178 -22.2054,-49.78711 -49.7871,-49.78711 z"
       transform="scale(0.26458334)" />
  </g>
  <g
     inkscape:groupmode="layer"
     id="layer3"
     inkscape:label="Medallion"
     style="display:inline"
     sodipodi:insensitive="true">
    <g
       id="g863"
       transform="translate(180.84549,-64.747152)">
      <path
         id="path851"
         style="fill:#875300;fill-opacity:1;stroke:#000000;stroke-width:1.05257;stroke-miterlimit:4;stroke-dasharray:none;stroke-opacity:1"
         d="m 702.76409,91.455408 a 64.571349,125.55906 0 0 0 -64.49401,125.559332 64.571349,125.55906 0 0 0 64.57148,125.55887 64.571349,125.55906 0 0 0 64.57111,-125.55887 64.571349,125.55906 0 0 0 -64.57111,-125.559332 64.571349,125.55906 0 0 0 -0.0775,0 z m 0.32061,29.820082 a 44.733322,95.534487 0 0 1 0.0654,0 44.733322,95.534487 0 0 1 44.73318,95.53471 44.733322,95.534487 0 0 1 -44.73318,95.53421 44.733322,95.534487 0 0 1 -44.73354,-95.53421 44.733322,95.534487 0 0 1 44.6682,-95.53471 z" />
      <circle
         style="fill:#ffef00;fill-opacity:1;stroke:#000000;stroke-width:1.32292;stroke-miterlimit:4;stroke-dasharray:none;stroke-opacity:1"
         id="path841"
         cx="703.28802"
         cy="360.79791"
         r="77.696587" />
    </g>
  </g>
  <g
     inkscape:groupmode="layer"
     id="layer4"
     inkscape:label="X Button"
     sodipodi:insensitive="true">
    <g
       id="g879">
      <ellipse
         style="fill:#0081ff;fill-opacity:1;stroke:#000000;stroke-width:1.32292;stroke-miterlimit:4;stroke-dasharray:none;stroke-opacity:1"
         id="path870"
         cx="247.8253"
         cy="408.13034"
         rx="60.728363"
         ry="62.961025" />
      <text
         xml:space="preserve"
         style="font-style:normal;font-weight:normal;font-size:105.833px;line-height:1.25;font-family:sans-serif;fill:#ffffff;fill-opacity:1;stroke:#000000;stroke-width:1.05833;stroke-miterlimit:4;stroke-dasharray:none;stroke-opacity:1"
         x="210.76314"
         y="446.08554"
         id="text874"><tspan
           sodipodi:role="line"
           id="tspan872"
           x="210.76314"
           y="446.08554"
           style="font-size:105.833px;fill:#ffffff;fill-opacity:1;stroke:#000000;stroke-width:1.05833;stroke-miterlimit:4;stroke-dasharray:none;stroke-opacity:1">X</tspan></text>
    </g>
  </g>
  <g
     inkscape:groupmode="layer"
     id="layer5"
     inkscape:label="Text">
    <text
       xml:space="preserve"
       style="font-style:normal;font-weight:normal;font-size:25.4px;line-height:1.25;font-family:sans-serif;fill:#000000;fill-opacity:1;stroke:none;stroke-width:0.264583"
       x="181.73857"
       y="186.20389"
       id="text955"><tspan
         sodipodi:role="line"
         id="tspan953"
         x="181.73857"
         y="186.20389"
         style="font-size:25.4px;stroke-width:0.264583">Button</tspan></text>
    <text
       xml:space="preserve"
       style="font-style:normal;font-weight:normal;font-size:25.4px;line-height:1.25;font-family:sans-serif;fill:#000000;fill-opacity:1;stroke:none;stroke-width:0.264583"
       x="200.93945"
       y="514.40497"
       id="text959"><tspan
         sodipodi:role="line"
         x="200.93945"
         y="514.40497"
         style="font-size:25.4px;stroke-width:0.264583"
         id="tspan961">X Button</tspan></text>
    <text
       xml:space="preserve"
       style="font-style:normal;font-weight:normal;font-size:25.4px;line-height:1.25;font-family:sans-serif;fill:#000000;fill-opacity:1;stroke:none;stroke-width:0.264583"
       x="588.08276"
       y="534.49896"
       id="text967"><tspan
         sodipodi:role="line"
         x="588.08276"
         y="534.49896"
         style="font-size:25.4px;stroke-width:0.264583"
         id="tspan969">Potion</tspan></text>
    <text
       xml:space="preserve"
       style="font-style:normal;font-weight:normal;font-size:25.4px;line-height:1.25;font-family:sans-serif;fill:#000000;fill-opacity:1;stroke:none;stroke-width:0.264583"
       x="821.17249"
       y="424.20554"
       id="text975"><tspan
         sodipodi:role="line"
         x="821.17249"
         y="424.20554"
         style="font-size:25.4px;stroke-width:0.264583"
         id="tspan977">Medallion</tspan></text>
  </g>
</svg>
